<?xml version="1.0" encoding="UTF-8"?>
<svg xmlns="http://www.w3.org/2000/svg" xmlns:xlink="http://www.w3.org/1999/xlink" width="375pt" height="374.999991pt" viewBox="0 0 375 374.999991" version="1.2">
<defs>
<clipPath id="clip1">
  <path d="M 136 112.5 L 239.4375 112.5 L 239.4375 262.5 L 136 262.5 Z M 136 112.5 "/>
</clipPath>
</defs>
<g id="surface1">
<g clip-path="url(#clip1)" clip-rule="nonzero">
<path style=" stroke:none;fill-rule:nonzero;fill:rgb(100%,8.628845%,8.628845%);fill-opacity:1;" d="M 187.921875 262.160156 C 188.644531 262.160156 189.316406 261.902344 189.78125 261.386719 C 191.796875 259.277344 239.753906 209.433594 239.753906 164.484375 C 239.753906 136.011719 216.5 112.839844 187.921875 112.839844 C 159.34375 112.839844 136.089844 136.011719 136.089844 164.484375 C 136.089844 209.433594 184.046875 259.277344 186.0625 261.386719 C 186.527344 261.902344 187.199219 262.160156 187.921875 262.160156 Z M 187.921875 132.097656 C 205.855469 132.097656 220.425781 146.617188 220.425781 164.484375 C 220.425781 182.351562 205.855469 196.871094 187.921875 196.871094 C 169.988281 196.871094 155.417969 182.351562 155.417969 164.484375 C 155.417969 146.617188 169.988281 132.097656 187.921875 132.097656 Z M 187.921875 132.097656 "/>
</g>
<path style=" stroke:none;fill-rule:nonzero;fill:rgb(100%,8.628845%,8.628845%);fill-opacity:1;" d="M 187.921875 191.722656 C 203.011719 191.722656 215.257812 179.519531 215.257812 164.484375 C 215.257812 149.5 203.011719 137.246094 187.921875 137.246094 C 172.832031 137.246094 160.585938 149.5 160.585938 164.484375 C 160.585938 179.519531 172.832031 191.722656 187.921875 191.722656 Z M 187.921875 149.242188 C 196.34375 149.242188 203.21875 156.089844 203.21875 164.484375 C 203.21875 172.875 196.34375 179.726562 187.921875 179.726562 C 179.5 179.726562 172.625 172.875 172.625 164.484375 C 172.625 156.089844 179.5 149.242188 187.921875 149.242188 Z M 187.921875 149.242188 "/>
<path style=" stroke:none;fill-rule:nonzero;fill:rgb(100%,8.628845%,8.628845%);fill-opacity:1;" d="M 187.921875 174.574219 C 193.503906 174.574219 198.050781 170.042969 198.050781 164.484375 C 198.050781 158.921875 193.503906 154.390625 187.921875 154.390625 C 182.339844 154.390625 177.792969 158.921875 177.792969 164.484375 C 177.792969 170.042969 182.339844 174.574219 187.921875 174.574219 Z M 187.921875 174.574219 "/>
<path style=" stroke:none;fill-rule:nonzero;fill:rgb(100%,59.999084%,0%);fill-opacity:1;" d="M 187.5 128.265625 C 186.308594 128.265625 185.117188 128.324219 183.929688 128.441406 C 182.742188 128.558594 181.5625 128.734375 180.390625 128.96875 C 179.222656 129.199219 178.066406 129.488281 176.921875 129.835938 C 175.78125 130.183594 174.660156 130.582031 173.558594 131.039062 C 172.453125 131.496094 171.378906 132.007812 170.324219 132.570312 C 169.273438 133.132812 168.25 133.746094 167.257812 134.40625 C 166.265625 135.070312 165.308594 135.78125 164.386719 136.539062 C 163.464844 137.292969 162.582031 138.09375 161.738281 138.9375 C 160.894531 139.78125 160.09375 140.664062 159.335938 141.585938 C 158.578125 142.511719 157.867188 143.46875 157.207031 144.460938 C 156.542969 145.453125 155.929688 146.472656 155.367188 147.527344 C 154.804688 148.578125 154.296875 149.65625 153.839844 150.757812 C 153.382812 151.859375 152.980469 152.984375 152.632812 154.125 C 152.289062 155.265625 152 156.421875 151.765625 157.59375 C 151.53125 158.765625 151.359375 159.941406 151.242188 161.128906 C 151.125 162.316406 151.066406 163.507812 151.066406 164.703125 C 151.066406 165.894531 151.125 167.085938 151.242188 168.273438 C 151.359375 169.460938 151.53125 170.640625 151.765625 171.808594 C 152 172.980469 152.289062 174.136719 152.632812 175.277344 C 152.980469 176.421875 153.382812 177.542969 153.839844 178.644531 C 154.296875 179.746094 154.804688 180.824219 155.367188 181.875 C 155.929688 182.929688 156.542969 183.953125 157.207031 184.945312 C 157.867188 185.9375 158.578125 186.894531 159.335938 187.816406 C 160.09375 188.738281 160.894531 189.621094 161.738281 190.464844 C 162.582031 191.308594 163.464844 192.109375 164.386719 192.867188 C 165.308594 193.625 166.265625 194.332031 167.257812 194.996094 C 168.25 195.660156 169.273438 196.273438 170.324219 196.835938 C 171.378906 197.398438 172.453125 197.90625 173.558594 198.363281 C 174.660156 198.820312 175.78125 199.222656 176.921875 199.566406 C 178.066406 199.914062 179.222656 200.203125 180.390625 200.4375 C 181.5625 200.667969 182.742188 200.84375 183.929688 200.960938 C 185.117188 201.078125 186.308594 201.136719 187.5 201.136719 C 188.691406 201.136719 189.882812 201.078125 191.070312 200.960938 C 192.257812 200.84375 193.4375 200.667969 194.609375 200.4375 C 195.777344 200.203125 196.933594 199.914062 198.078125 199.566406 C 199.21875 199.222656 200.339844 198.820312 201.441406 198.363281 C 202.546875 197.90625 203.621094 197.398438 204.675781 196.835938 C 205.726562 196.273438 206.75 195.660156 207.742188 194.996094 C 208.734375 194.332031 209.691406 193.625 210.613281 192.867188 C 211.535156 192.109375 212.417969 191.308594 213.261719 190.464844 C 214.105469 189.621094 214.90625 188.738281 215.664062 187.816406 C 216.421875 186.894531 217.132812 185.9375 217.792969 184.945312 C 218.457031 183.953125 219.070312 182.929688 219.632812 181.875 C 220.195312 180.824219 220.703125 179.746094 221.160156 178.644531 C 221.617188 177.542969 222.019531 176.421875 222.367188 175.277344 C 222.710938 174.136719 223 172.980469 223.234375 171.808594 C 223.46875 170.640625 223.640625 169.460938 223.757812 168.273438 C 223.875 167.085938 223.933594 165.894531 223.933594 164.703125 C 223.933594 163.507812 223.875 162.316406 223.757812 161.128906 C 223.640625 159.941406 223.46875 158.765625 223.234375 157.59375 C 223 156.421875 222.710938 155.265625 222.367188 154.125 C 222.019531 152.984375 221.617188 151.859375 221.160156 150.757812 C 220.703125 149.65625 220.195312 148.578125 219.632812 147.527344 C 219.070312 146.472656 218.457031 145.453125 217.792969 144.460938 C 217.132812 143.46875 216.421875 142.511719 215.664062 141.585938 C 214.90625 140.664062 214.105469 139.78125 213.261719 138.9375 C 212.417969 138.09375 211.535156 137.292969 210.613281 136.539062 C 209.691406 135.78125 208.734375 135.070312 207.742188 134.40625 C 206.75 133.746094 205.726562 133.132812 204.675781 132.570312 C 203.621094 132.007812 202.546875 131.496094 201.441406 131.039062 C 200.339844 130.582031 199.21875 130.183594 198.078125 129.835938 C 196.933594 129.488281 195.777344 129.199219 194.609375 128.96875 C 193.4375 128.734375 192.257812 128.558594 191.070312 128.441406 C 189.882812 128.324219 188.691406 128.265625 187.5 128.265625 Z M 187.5 128.265625 "/>
</g>
</svg>
